<?xml version="1.0" encoding="UTF-8" standalone="no"?>
<!-- Created with Inkscape (http://www.inkscape.org/) -->

<svg
   xmlns:dc="http://purl.org/dc/elements/1.1/"
   xmlns:cc="http://creativecommons.org/ns#"
   xmlns:rdf="http://www.w3.org/1999/02/22-rdf-syntax-ns#"
   xmlns:svg="http://www.w3.org/2000/svg"
   xmlns="http://www.w3.org/2000/svg"
   xmlns:sodipodi="http://sodipodi.sourceforge.net/DTD/sodipodi-0.dtd"
   xmlns:inkscape="http://www.inkscape.org/namespaces/inkscape"
   width="210mm"
   height="297mm"
   viewBox="0 0 210 297"
   version="1.1"
   id="svg8"
   inkscape:version="0.92.2 (5c3e80d, 2017-08-06)"
   sodipodi:docname="Clunkr logo.svg">
  <defs
     id="defs2">
    <clipPath
       id="clipEmfPath1"
       clipPathUnits="userSpaceOnUse">
      <path
         id="path3699"
         d="M 0,-37.177468 L 863.47668,-37.177468 L 863.47668,156.94488 L 0,156.94488 z" />
    </clipPath>
    <pattern
       y="0"
       x="0"
       height="6"
       width="6"
       patternUnits="userSpaceOnUse"
       id="EMFhbasepattern" />
    <pattern
       y="0"
       x="0"
       height="6"
       width="6"
       patternUnits="userSpaceOnUse"
       id="EMFhbasepattern-4" />
  </defs>
  <sodipodi:namedview
     id="base"
     pagecolor="#ffffff"
     bordercolor="#666666"
     borderopacity="1.0"
     inkscape:pageopacity="0.0"
     inkscape:pageshadow="2"
     inkscape:zoom="1.4"
     inkscape:cx="569.94849"
     inkscape:cy="859.92142"
     inkscape:document-units="mm"
     inkscape:current-layer="layer1"
     showgrid="false"
     inkscape:window-width="1920"
     inkscape:window-height="1001"
     inkscape:window-x="-9"
     inkscape:window-y="-9"
     inkscape:window-maximized="1" />
  <metadata
     id="metadata5">
    <rdf:RDF>
      <cc:Work
         rdf:about="">
        <dc:format>image/svg+xml</dc:format>
        <dc:type
           rdf:resource="http://purl.org/dc/dcmitype/StillImage" />
        <dc:title></dc:title>
      </cc:Work>
    </rdf:RDF>
  </metadata>
  <g
     inkscape:label="Layer 1"
     inkscape:groupmode="layer"
     id="layer1">
    <path
       id="path3746"
       d="m 20.973672,54.2076 c 2.422116,0 4.653846,0.55 6.684616,1.639424 l 0.6875,0.359615 0.275,0.126923 0.296153,0.09519 c 0.05288,0 0.1375,-0.04231 0.253847,-0.1375 0.253846,-0.179808 0.423077,-0.275 0.518269,-0.275 0.179808,0 0.306731,0.222115 0.359615,0.655769 l 0.55,4.135577 0.05288,0.433654 -0.05288,0.169231 c -0.05288,0.105769 -0.1375,0.158654 -0.253846,0.169231 -0.1375,0.01058 -0.349038,-0.232693 -0.624038,-0.719231 -2.147116,-3.754808 -5.05577,-5.6375 -8.736539,-5.6375 -2.929807,0 -5.235576,0.909615 -6.927884,2.707692 -1.692308,1.798077 -2.538462,4.251924 -2.538462,7.372116 0,3.585577 0.941347,6.515385 2.824039,8.789423 1.872115,2.274039 4.29423,3.416346 7.245192,3.416346 1.724038,0 3.416346,-0.465384 5.0875,-1.385576 1.660577,-0.920193 2.813461,-2.03077 3.458654,-3.342308 0.296154,-0.613462 0.528846,-0.930769 0.6875,-0.941346 0.190384,-0.01058 0.275,0.105769 0.275,0.327884 l -0.01058,0.190385 -0.07404,0.391346 -0.391346,2.104808 -0.07404,0.317307 c -0.04231,0.296154 -0.317308,0.602885 -0.803847,0.920193 -2.654807,1.692307 -5.574038,2.538461 -8.768269,2.538461 -3.691345,0 -6.674038,-1.1 -8.937499,-3.289423 C 9.7727111,73.15087 8.6515573,70.26337 8.6515573,66.68837 c 0,-3.585577 1.1634615,-6.557693 3.5115387,-8.926923 2.3375,-2.369231 5.277884,-3.553847 8.810576,-3.553847 z m 94.790378,5.933654 c -0.53942,0 -0.92019,0.09519 -1.12115,0.275 -0.21154,0.179808 -0.31731,0.497116 -0.31731,0.973077 l 0.0212,0.454808 v 5.605769 c 0,0.433654 0.0529,0.708654 0.16923,0.825001 0.11634,0.116346 0.38077,0.16923 0.80384,0.16923 h 1.56539 c 1.20577,0 2.14711,-0.327884 2.84519,-0.994231 0.6875,-0.666346 1.02596,-1.565384 1.02596,-2.718269 0,-1.332692 -0.46538,-2.432692 -1.40673,-3.3 -0.93077,-0.856731 -2.12596,-1.290385 -3.58558,-1.290385 z M 33.856365,59.273947 c 0.211538,0 0.497115,0.02115 0.867307,0.05289 0.613462,0.06346 1.322116,0.08462 2.094231,0.08462 0.846154,0 1.607693,-0.02115 2.295192,-0.06346 0.349038,-0.02115 0.55,-0.03173 0.592307,-0.03173 0.222118,0 0.327885,0.06346 0.327885,0.200961 0,0.200962 -0.126923,0.327885 -0.391345,0.391346 l -0.48654,0.105769 c -0.825,0.211539 -1.237499,1.025962 -1.237499,2.475 v 11.983654 l 0.01058,0.486539 c 0,1.1 0.10577,1.755769 0.317309,1.956731 0.211537,0.200961 0.899039,0.296153 2.073077,0.296153 1.71346,0 3.204808,-0.200961 4.474038,-0.613461 1.258655,-0.401923 2.062501,-0.941346 2.411539,-1.618269 0.137499,-0.243269 0.264422,-0.370193 0.391346,-0.370193 0.148076,0 0.211539,0.09519 0.200961,0.275 -0.03173,0.602885 -0.327885,1.269231 -0.888463,1.988462 -0.793268,1.004808 -2.073076,1.501923 -3.849999,1.501923 -0.296154,0 -0.634614,-0.02115 -1.015384,-0.04231 l -1.491345,-0.116346 c -0.867309,-0.06346 -1.798079,-0.09519 -2.771156,-0.09519 -1.131729,0 -2.073076,0.05288 -2.834614,0.169231 -0.327885,0.04231 -0.581731,0.07404 -0.772116,0.08461 -0.232692,0.01058 -0.349038,-0.07404 -0.349038,-0.243269 0,-0.148077 0.126923,-0.253846 0.380769,-0.327885 0.634615,-0.190384 1.057692,-0.475961 1.279807,-0.846154 0.21154,-0.370192 0.327885,-0.99423 0.327885,-1.882692 l 0.01058,-0.634615 V 62.119139 c 0,-1.226923 -0.497117,-1.935577 -1.491347,-2.136539 l -0.613461,-0.126923 c -0.222116,-0.04231 -0.327885,-0.1375 -0.327885,-0.275 0,-0.200961 0.148077,-0.30673 0.465385,-0.30673 z m 57.85577,-0.02115 c 0.137498,0 0.296153,0.01058 0.497115,0.04231 0.465383,0.06346 1.195192,0.09519 2.2,0.09519 l 0.507693,-0.02115 1.036537,-0.02115 c 0.275,0 0.507693,-0.01058 0.708654,-0.02115 0.370192,-0.03173 0.592307,-0.05288 0.666346,-0.05288 0.222115,-0.01058 0.327884,0.07404 0.327884,0.253846 0,0.126923 -0.105769,0.232692 -0.327884,0.327884 -0.581732,0.24327 -0.941346,0.528847 -1.1,0.846154 -0.148077,0.317308 -0.222115,0.941346 -0.222115,1.882693 v 5.3625 c 0,0.190385 0.04231,0.296154 0.116345,0.296154 l 0.222115,-0.158654 0.21154,-0.158654 5.901925,-5.299039 c 0.90961,-0.803846 1.36442,-1.449038 1.36442,-1.935577 0,-0.423077 -0.32788,-0.6875 -0.99423,-0.814423 -0.4125,-0.06346 -0.62404,-0.179808 -0.62404,-0.349038 0,-0.190385 0.1375,-0.275 0.42308,-0.275 0.0846,0 0.21154,0 0.37019,0.02115 0.39135,0.02115 0.825,0.04231 1.30096,0.04231 l 1.26923,0.03173 1.03654,-0.01058 c 0.58173,0 0.9625,-0.02115 1.14231,-0.04231 0.21154,-0.03173 0.35961,-0.04231 0.42308,-0.04231 0.25384,0 0.39134,0.08461 0.40192,0.264423 0.0106,0.148077 -0.21154,0.275 -0.65577,0.380769 -0.825,0.211539 -2.41154,1.364423 -4.74904,3.469231 l -4.717307,4.262501 c -0.200962,0.190385 -0.306729,0.338462 -0.306729,0.444231 -0.01058,0.1375 0.09519,0.327885 0.327882,0.581731 l 7.171154,7.499038 c 0.76154,0.793269 1.59712,1.290385 2.49616,1.470192 l 0.60288,0.126924 c 0.21153,0.04231 0.3173,0.1375 0.3173,0.275 0,0.222115 -0.14807,0.327884 -0.42307,0.30673 -0.0846,0 -0.20096,-0.01058 -0.33846,-0.03173 -0.16923,-0.02115 -0.56058,-0.04231 -1.17404,-0.04231 -0.55,0 -0.95192,0.01058 -1.19519,0.03173 -0.275,0.02115 -0.48654,0.02115 -0.63462,0.02115 -0.30673,0 -0.58173,-0.116347 -0.80384,-0.370193 l -0.2327,-0.253846 -7.393264,-7.615385 -0.285578,-0.30673 c -0.10577,-0.09519 -0.211537,-0.148077 -0.327885,-0.148077 -0.158652,0 -0.243268,0.105769 -0.243268,0.317307 v 5.034616 c 0,1.057692 0.137498,1.755769 0.423076,2.09423 0.285578,0.338462 0.941345,0.592308 1.956732,0.761539 0.264422,0.04231 0.401923,0.1375 0.412498,0.285577 0.01058,0.179808 -0.09519,0.275 -0.327885,0.264423 -0.12692,-0.01058 -0.380767,-0.03173 -0.740383,-0.06346 -0.306732,-0.02115 -0.856732,-0.03173 -1.639422,-0.03173 l -1.110578,-0.02115 -0.973077,0.03173 c -0.380769,0 -0.634616,0 -0.761539,0.01058 -0.486537,0.05288 -0.761537,0.07404 -0.825,0.07404 -0.296154,0 -0.454808,-0.105769 -0.454808,-0.327885 0,-0.1375 0.137501,-0.222115 0.401923,-0.253846 0.571156,-0.05288 0.962501,-0.327884 1.195194,-0.814423 0.222115,-0.486538 0.338461,-1.300961 0.338461,-2.453846 V 62.796062 c 0,-0.983654 -0.10577,-1.671154 -0.317307,-2.0625 -0.21154,-0.391346 -0.613463,-0.655769 -1.216348,-0.782692 l -0.676923,-0.1375 c -0.232691,-0.05288 -0.359614,-0.148077 -0.359614,-0.285577 0,-0.190385 0.126923,-0.275 0.38077,-0.275 z m -21.809618,-0.03173 c 0.05289,0 0.126924,0 0.222115,0.01058 l 0.571156,0.02115 0.920192,0.02115 0.222115,-0.01058 c 0.222115,-0.01058 0.391345,-0.01058 0.507693,-0.01058 0.232691,0 0.454809,0.126923 0.687499,0.391346 l 12.671155,14.352884 c 0.200962,0.222115 0.327885,0.338461 0.38077,0.327884 0.09519,-0.01058 0.137499,-0.09519 0.148077,-0.264423 v -6.811538 l 0.02115,-1.861538 -0.16923,-3.162501 c -0.09519,-0.782692 -0.317307,-1.332692 -0.67692,-1.660577 -0.370195,-0.327884 -1.025962,-0.571154 -1.96731,-0.719231 -0.264422,-0.05288 -0.401923,-0.158653 -0.401923,-0.338461 0,-0.169231 0.137501,-0.253846 0.401923,-0.253846 0.116348,0 0.31731,0.01058 0.581732,0.03173 0.634616,0.06346 1.480769,0.105769 2.549038,0.105769 0.560578,0 1.015383,-0.03173 1.353846,-0.08461 0.296154,-0.05289 0.518269,-0.08461 0.676924,-0.08461 0.243268,0 0.370191,0.09519 0.391345,0.285577 0.01058,0.126923 -0.08461,0.211538 -0.275,0.264423 -0.560576,0.1375 -0.93077,0.370192 -1.110575,0.6875 -0.179809,0.317308 -0.275,0.920192 -0.275,1.808654 v 1.480769 l -0.02116,0.909616 v 11.539423 c 0,1.036538 -0.02115,1.671154 -0.07404,1.893269 -0.04231,0.222116 -0.16923,0.327885 -0.380767,0.327885 -0.137501,-0.01058 -0.243271,-0.05288 -0.31731,-0.126923 L 86.233289,77.931639 74.630402,64.657601 74.492903,64.509524 c -0.05289,-0.05288 -0.116345,-0.08462 -0.190386,-0.08462 -0.179805,0 -0.264422,0.211538 -0.264422,0.624038 v 9.339423 l -0.01058,0.581731 0.04231,0.973077 c 0.06346,0.613461 0.211537,1.025961 0.465383,1.258653 0.243269,0.232693 0.729808,0.401924 1.459616,0.507693 0.296154,0.04231 0.454809,0.158654 0.454809,0.349038 0,0.179808 -0.0952,0.275 -0.296154,0.275 -0.126923,0 -0.264424,-0.01058 -0.412501,-0.03173 -0.09519,-0.02115 -0.497115,-0.04231 -1.195192,-0.08462 l -1.406731,-0.06346 -0.65577,0.02115 c -0.359614,0 -0.698077,0.02115 -1.015383,0.06346 -0.243269,0.03173 -0.412502,0.05288 -0.518269,0.05288 -0.232693,0 -0.359616,-0.08462 -0.38077,-0.253847 -0.01058,-0.1375 0.116345,-0.253846 0.38077,-0.338461 0.772115,-0.264423 1.300962,-0.624039 1.565384,-1.068269 0.274999,-0.444231 0.412498,-1.163462 0.412498,-2.157693 v -9.371153 c 0,-1.586539 -0.253844,-2.834616 -0.761537,-3.754808 -0.507693,-0.909616 -1.237501,-1.438462 -2.189424,-1.565385 -0.243269,-0.03173 -0.370192,-0.1375 -0.370192,-0.306731 0,-0.169231 0.09519,-0.253846 0.296153,-0.253846 z m 46.475003,-0.01058 c 2.11538,0 3.71249,0.391346 4.78077,1.184615 1.07884,0.803846 1.60769,1.977884 1.60769,3.553846 0,2.0625 -1.13173,3.670192 -3.3952,4.791346 l 3.79712,5.605769 0.44423,0.65577 c 1.17404,1.724038 2.25288,2.623076 3.24712,2.686538 l 0.44423,0.02115 c 0.15865,0.01058 0.24327,0.07404 0.23269,0.200961 -0.0106,0.1375 -0.21154,0.264424 -0.61346,0.38077 -0.40193,0.105769 -0.85673,0.16923 -1.35385,0.16923 -0.825,0 -1.56538,-0.232692 -2.23173,-0.6875 -0.65577,-0.454807 -1.32212,-1.195192 -1.99904,-2.221153 l -3.42692,-5.235577 -0.19039,-0.296154 c -0.22211,-0.380765 -0.58173,-0.57115 -1.07884,-0.57115 h -1.82981 l -0.30673,0.05288 c -0.10577,0.06346 -0.15865,0.211538 -0.15865,0.44423 v 4.31539 l 0.0106,0.55 c 0,0.793269 0.0423,1.332692 0.11635,1.618269 0.0846,0.296154 0.26442,0.55 0.56058,0.782692 0.39134,0.317308 1.0048,0.507693 1.8298,0.592308 0.32789,0.04231 0.49712,0.1375 0.5077,0.317308 0.0212,0.179808 -0.12693,0.264423 -0.45481,0.264423 -0.12693,0 -0.40193,-0.02115 -0.81442,-0.06346 -0.3702,-0.04231 -0.95193,-0.06346 -1.7452,-0.06346 l -1.32214,-0.01058 -0.71923,0.01058 c -0.30673,0 -0.6875,0.02115 -1.12116,0.07404 -0.35961,0.03173 -0.61346,0.05288 -0.75096,0.05288 -0.22211,0 -0.33846,-0.09519 -0.33846,-0.285577 0,-0.126923 0.11635,-0.222115 0.33846,-0.264423 0.74039,-0.1375 1.21635,-0.475962 1.44904,-1.004808 0.23269,-0.528846 0.34904,-1.565384 0.34904,-3.120192 v -9.9 l -0.0317,-1.438462 c 0,-1.427884 -0.49712,-2.231731 -1.50193,-2.390385 l -0.64519,-0.105769 c -0.29615,-0.05289 -0.44423,-0.158654 -0.44423,-0.317308 0,-0.190384 0.15866,-0.285576 0.47596,-0.285576 0.0635,0 0.39135,0.02115 0.9625,0.05289 0.32789,0.03173 0.74039,0.04231 1.22693,0.04231 0.4125,0 1.1423,-0.03173 2.15769,-0.09519 0.72981,-0.04231 1.38558,-0.06346 1.93558,-0.06346 z m -53.106734,-0.06346 c 0.200962,0.01058 0.497118,0.05288 0.877885,0.116346 0.349039,0.05288 0.76154,0.08461 1.248077,0.08461 1.025961,0 1.660578,-0.02115 1.893271,-0.04231 0.317307,-0.03173 0.528846,-0.04231 0.602885,-0.04231 0.179808,0 0.264422,0.07404 0.264422,0.243269 0,0.126923 -0.09519,0.243269 -0.285576,0.317308 -0.560578,0.232693 -0.930769,0.550001 -1.089424,0.962501 -0.16923,0.4125 -0.253847,1.195192 -0.253847,2.348076 v 6.811539 c 0,2.506731 -0.497115,4.431731 -1.501923,5.785577 -0.624038,0.846154 -1.533652,1.533654 -2.718268,2.041346 -1.174038,0.507693 -2.432693,0.761539 -3.775962,0.761539 -1.554808,0 -2.961539,-0.296154 -4.209616,-0.909616 -1.248076,-0.602884 -2.168268,-1.427884 -2.739421,-2.464423 -0.65577,-1.184615 -0.983655,-2.749999 -0.983655,-4.664423 v -6.991346 l -0.02115,-0.782692 c 0,-0.983654 -0.137501,-1.660577 -0.412501,-2.03077 -0.264422,-0.380769 -0.814422,-0.624038 -1.628846,-0.740384 -0.243269,-0.03173 -0.370192,-0.126923 -0.370192,-0.285577 0,-0.211539 0.16923,-0.317308 0.518268,-0.317308 0.232694,0 0.55,0.01058 0.951924,0.02115 0.423076,0.03173 0.729808,0.04231 0.920194,0.04231 l 1.068268,-0.01058 h 1.047115 c 0.10577,0 0.359617,-0.02115 0.76154,-0.05288 0.349038,-0.03173 0.581729,-0.04231 0.708652,-0.04231 0.21154,0 0.31731,0.07404 0.31731,0.211539 0,0.16923 -0.148077,0.285576 -0.444233,0.338461 -0.528844,0.116346 -0.88846,0.349038 -1.068269,0.698077 -0.179808,0.338462 -0.264421,0.951923 -0.264421,1.840385 l 0.02115,0.909615 v 6.938462 c 0,2.369231 0.370192,4.050962 1.110575,5.066346 1.03654,1.427885 2.771156,2.136539 5.225003,2.136539 2.178843,0 3.818268,-0.592308 4.897114,-1.7875 1.089422,-1.195193 1.628847,-3.003846 1.628847,-5.415385 V 63.11337 c 0,-1.142308 -0.158655,-1.977885 -0.497115,-2.496154 -0.327882,-0.518269 -0.88846,-0.814423 -1.671153,-0.888462 -0.275,-0.02115 -0.401924,-0.126923 -0.401924,-0.296154 0,-0.200961 0.08462,-0.285576 0.275,-0.285576 z m 68.274034,15.008654 c 0.17981,0 0.39135,0.211538 0.63462,0.634615 0.16923,0.285577 0.46538,0.571154 0.88846,0.867308 0.44423,0.327885 0.66635,0.581731 0.66635,0.793269 0,0.169231 -0.21154,0.391346 -0.63462,0.666346 -0.42308,0.264423 -0.71923,0.560577 -0.90961,0.877885 l -0.2327,0.370192 c -0.11634,0.200962 -0.28557,0.296154 -0.49711,0.296154 -0.19039,0 -0.42308,-0.211538 -0.71923,-0.634615 -0.26443,-0.401924 -0.57116,-0.698077 -0.90962,-0.909616 -0.40192,-0.253846 -0.60288,-0.486538 -0.60288,-0.698077 0,-0.200961 0.19038,-0.401923 0.56057,-0.624038 0.38077,-0.211539 0.71923,-0.560577 1.03654,-1.025962 0.26443,-0.4125 0.49712,-0.613461 0.71923,-0.613461 z m 26.74904,-9.730769 c -1.43846,0 -2.59134,0.528846 -3.46923,1.586538 -0.87788,1.068269 -1.31154,2.453846 -1.31154,4.177884 0,2.189424 0.53943,4.029808 1.63943,5.500001 1.08942,1.480769 2.45384,2.210576 4.08269,2.210576 1.41731,0 2.53846,-0.518269 3.36346,-1.565384 0.81442,-1.036539 1.22692,-2.464423 1.22692,-4.251923 0,-2.263462 -0.51827,-4.103846 -1.54423,-5.521154 -1.03654,-1.427885 -2.36923,-2.136538 -3.9875,-2.136538 z m 0.43366,-0.687501 c 2.06249,0 3.83942,0.719231 5.32019,2.16827 1.48077,1.449038 2.22115,3.183654 2.22115,5.193269 0,2.178846 -0.72981,3.976923 -2.18942,5.394231 -1.45962,1.427884 -3.3,2.136538 -5.52115,2.136538 -2.17885,0 -3.97693,-0.698077 -5.38366,-2.073077 -1.40673,-1.385577 -2.10481,-3.151923 -2.10481,-5.309615 0,-2.083654 0.74039,-3.860577 2.23173,-5.320192 1.49135,-1.459616 3.3,-2.189424 5.42597,-2.189424 z m -14.22596,0 c 0.99423,0 1.87211,0.116346 2.64422,0.370193 0.77212,0.243269 1.16347,0.528846 1.16347,0.846154 l -0.0212,0.518269 0.12693,1.311538 c 0,0.602885 -0.1375,0.920193 -0.42308,0.941347 -0.12692,0.01058 -0.29616,-0.158654 -0.48654,-0.507693 -0.37019,-0.655769 -0.98365,-1.226923 -1.85096,-1.713461 -0.86731,-0.475962 -1.70288,-0.719231 -2.51731,-0.719231 -1.12115,0 -2.04134,0.507692 -2.75,1.533654 -0.70865,1.025961 -1.06827,2.348077 -1.06827,3.966346 0,1.914423 0.55,3.532692 1.65,4.854808 1.08942,1.332692 2.42212,1.988461 4.00866,1.988461 1.26923,0 2.5173,-0.518269 3.74423,-1.565384 0.15865,-0.126923 0.29615,-0.190385 0.42307,-0.211539 0.17981,-0.02115 0.26443,0.06346 0.26443,0.243269 0,0.253847 -0.275,0.624039 -0.825,1.110577 -1.41731,1.279808 -3.13077,1.925 -5.12981,1.925 -1.84039,0 -3.37404,-0.666346 -4.60096,-2.009615 -1.2375,-1.332692 -1.85097,-2.982693 -1.85097,-4.960577 0,-2.2 0.72981,-4.072116 2.18943,-5.616346 1.45961,-1.533654 3.23654,-2.30577 5.30962,-2.30577 z m 28.81153,-0.401923 c 0.16923,0 0.26442,0.211538 0.26442,0.634615 v 2.083655 c 1.27981,-1.544231 2.79231,-2.316347 4.53751,-2.316347 1.01538,0 1.84038,0.190385 2.48557,0.581731 0.63462,0.391346 1.2375,1.057693 1.79808,1.999039 1.32211,-1.724039 2.89808,-2.58077 4.72788,-2.58077 1.55481,0 2.76058,0.497116 3.63846,1.48077 0.86731,0.994231 1.30097,2.379807 1.30097,4.167308 v 5.542307 c 0,0.877885 0.16923,1.533654 0.51827,1.956731 0.33846,0.433654 0.90961,0.676923 1.70288,0.761538 0.275,0.02115 0.4125,0.148077 0.4125,0.370193 0,0.200961 -0.1375,0.296154 -0.4125,0.296154 -0.12692,0 -0.30673,-0.01058 -0.52884,-0.04231 -0.3702,-0.06346 -0.94135,-0.09519 -1.72404,-0.09519 -1.52308,0 -2.46443,0.03173 -2.8452,0.08461 -0.25384,0.04231 -0.42307,0.05288 -0.51827,0.05288 -0.29615,0 -0.4548,-0.10577 -0.46538,-0.327885 -0.0106,-0.1375 0.0846,-0.243269 0.29615,-0.317308 0.5077,-0.200961 0.83558,-0.391346 0.99423,-0.571154 0.14808,-0.179807 0.2327,-0.486538 0.2327,-0.899038 l 0.0106,-0.581731 V 69.98836 c 0,-1.554808 -0.32788,-2.760577 -0.98365,-3.617308 -0.65577,-0.867307 -1.57596,-1.290384 -2.76058,-1.290384 -0.77211,0 -1.52307,0.243269 -2.23173,0.719231 -0.70865,0.486538 -1.06827,0.99423 -1.06827,1.533653 0,0.116346 0.0212,0.253846 0.0529,0.433654 0.074,0.4125 0.10577,0.803846 0.10577,1.184616 v 6.229807 c 0,0.867308 0.14807,1.48077 0.44423,1.829808 0.28557,0.338461 0.84615,0.55 1.66057,0.613461 0.3702,0.04231 0.56058,0.169231 0.56058,0.38077 0,0.211538 -0.15865,0.306731 -0.49711,0.306731 -0.11635,0 -0.29616,-0.01058 -0.55,-0.03173 -0.63462,-0.06346 -1.17404,-0.105769 -1.62885,-0.105769 -1.57596,0 -2.57019,0.03173 -2.98269,0.09519 -0.22212,0.03173 -0.39135,0.04231 -0.53942,0.04231 -0.275,0 -0.41251,-0.09519 -0.41251,-0.296154 0,-0.126923 0.10577,-0.232693 0.31731,-0.296154 0.60289,-0.222116 0.9625,-0.433654 1.07885,-0.645193 0.11635,-0.211538 0.16923,-0.772115 0.16923,-1.68173 v -6.377885 c 0,-1.205769 -0.30673,-2.157692 -0.93077,-2.845192 -0.62404,-0.698077 -1.49134,-1.047115 -2.58077,-1.047115 -1.01538,0 -1.82981,0.264423 -2.45385,0.782692 -0.62403,0.518269 -0.93077,1.205769 -0.93077,2.041346 v 7.393269 c 0,0.750962 0.15866,1.290385 0.48654,1.639423 0.32789,0.338462 0.87789,0.560577 1.66058,0.645192 0.35962,0.04231 0.53942,0.169231 0.53942,0.391347 0,0.211538 -0.1375,0.317307 -0.42307,0.296154 -0.15866,-0.01058 -0.43366,-0.03173 -0.825,-0.08462 -0.24327,-0.03173 -0.71923,-0.05288 -1.42789,-0.05288 h -1.16346 l -1.17404,0.02115 c -0.15865,0 -0.35961,0.02115 -0.60288,0.04231 -0.29616,0.04231 -0.50769,0.06346 -0.63462,0.07404 -0.28558,0.02115 -0.43365,-0.08462 -0.43365,-0.296154 0,-0.179808 0.12692,-0.306731 0.38077,-0.391347 0.52884,-0.158653 0.8673,-0.359615 1.01538,-0.613461 0.14808,-0.253846 0.22212,-0.750961 0.22212,-1.480769 v -7.7 c 0,-0.825 -0.0846,-1.396154 -0.26443,-1.702885 -0.1798,-0.30673 -0.50769,-0.465384 -0.99423,-0.465384 h -0.76154 c -0.10577,0 -0.21153,-0.03173 -0.28557,-0.08462 -0.074,-0.04231 -0.10577,-0.09519 -0.10577,-0.179807 0,-0.158654 0.1375,-0.275 0.4125,-0.359616 1.18461,-0.306731 2.28461,-0.750961 3.3,-1.322116 0.45481,-0.253846 0.71923,-0.380769 0.81442,-0.380769 z"
       style="fill:#004224;fill-opacity:1;fill-rule:evenodd;stroke:none;stroke-width:0.26458332"
       inkscape:connector-curvature="0" />
    <path
       id="path3748"
       d="m 20.973672,54.2076 c 2.422116,0 4.653846,0.55 6.684616,1.639424 l 0.6875,0.359615 0.275,0.126923 0.296153,0.09519 c 0.05288,0 0.1375,-0.04231 0.253847,-0.1375 0.253846,-0.179808 0.423077,-0.275 0.518269,-0.275 0.179808,0 0.306731,0.222115 0.359615,0.655769 l 0.55,4.135577 0.05288,0.433654 -0.05288,0.169231 c -0.05288,0.105769 -0.1375,0.158654 -0.253846,0.169231 -0.1375,0.01058 -0.349038,-0.232693 -0.624038,-0.719231 -2.147116,-3.754808 -5.05577,-5.6375 -8.736539,-5.6375 -2.929807,0 -5.235576,0.909615 -6.927884,2.707692 -1.692308,1.798077 -2.538462,4.251924 -2.538462,7.372116 0,3.585577 0.941347,6.515385 2.824039,8.789423 1.872115,2.274039 4.29423,3.416346 7.245192,3.416346 1.724038,0 3.416346,-0.465384 5.0875,-1.385576 1.660577,-0.920193 2.813461,-2.03077 3.458654,-3.342308 0.296154,-0.613462 0.528846,-0.930769 0.6875,-0.941346 0.190384,-0.01058 0.275,0.105769 0.275,0.327884 l -0.01058,0.190385 -0.07404,0.391346 -0.391346,2.104808 -0.07404,0.317307 c -0.04231,0.296154 -0.317308,0.602885 -0.803847,0.920193 -2.654807,1.692307 -5.574038,2.538461 -8.768269,2.538461 -3.691345,0 -6.674038,-1.1 -8.937499,-3.289423 C 9.7727111,73.15087 8.6515573,70.26337 8.6515573,66.68837 c 0,-3.585577 1.1634615,-6.557693 3.5115387,-8.926923 2.3375,-2.369231 5.277884,-3.553847 8.810576,-3.553847 z m 94.790378,5.933654 c -0.53942,0 -0.92019,0.09519 -1.12115,0.275 -0.21154,0.179808 -0.31731,0.497116 -0.31731,0.973077 l 0.0212,0.454808 v 5.605769 c 0,0.433654 0.0529,0.708654 0.16923,0.825001 0.11634,0.116346 0.38077,0.16923 0.80384,0.16923 h 1.56539 c 1.20577,0 2.14711,-0.327884 2.84519,-0.994231 0.6875,-0.666346 1.02596,-1.565384 1.02596,-2.718269 0,-1.332692 -0.46538,-2.432692 -1.40673,-3.3 -0.93077,-0.856731 -2.12596,-1.290385 -3.58558,-1.290385 z M 33.856365,59.273947 c 0.211538,0 0.497115,0.02115 0.867307,0.05289 0.613462,0.06346 1.322116,0.08462 2.094231,0.08462 0.846154,0 1.607693,-0.02115 2.295192,-0.06346 0.349038,-0.02115 0.55,-0.03173 0.592307,-0.03173 0.222118,0 0.327885,0.06346 0.327885,0.200961 0,0.200962 -0.126923,0.327885 -0.391345,0.391346 l -0.48654,0.105769 c -0.825,0.211539 -1.237499,1.025962 -1.237499,2.475 v 11.983654 l 0.01058,0.486539 c 0,1.1 0.10577,1.755769 0.317309,1.956731 0.211537,0.200961 0.899039,0.296153 2.073077,0.296153 1.71346,0 3.204808,-0.200961 4.474038,-0.613461 1.258655,-0.401923 2.062501,-0.941346 2.411539,-1.618269 0.137499,-0.243269 0.264422,-0.370193 0.391346,-0.370193 0.148076,0 0.211539,0.09519 0.200961,0.275 -0.03173,0.602885 -0.327885,1.269231 -0.888463,1.988462 -0.793268,1.004808 -2.073076,1.501923 -3.849999,1.501923 -0.296154,0 -0.634614,-0.02115 -1.015384,-0.04231 l -1.491345,-0.116346 c -0.867309,-0.06346 -1.798079,-0.09519 -2.771156,-0.09519 -1.131729,0 -2.073076,0.05288 -2.834614,0.169231 -0.327885,0.04231 -0.581731,0.07404 -0.772116,0.08461 -0.232692,0.01058 -0.349038,-0.07404 -0.349038,-0.243269 0,-0.148077 0.126923,-0.253846 0.380769,-0.327885 0.634615,-0.190384 1.057692,-0.475961 1.279807,-0.846154 0.21154,-0.370192 0.327885,-0.99423 0.327885,-1.882692 l 0.01058,-0.634615 V 62.119139 c 0,-1.226923 -0.497117,-1.935577 -1.491347,-2.136539 l -0.613461,-0.126923 c -0.222116,-0.04231 -0.327885,-0.1375 -0.327885,-0.275 0,-0.200961 0.148077,-0.30673 0.465385,-0.30673 z m 57.85577,-0.02115 c 0.137498,0 0.296153,0.01058 0.497115,0.04231 0.465383,0.06346 1.195192,0.09519 2.2,0.09519 l 0.507693,-0.02115 1.036537,-0.02115 c 0.275,0 0.507693,-0.01058 0.708654,-0.02115 0.370192,-0.03173 0.592307,-0.05288 0.666346,-0.05288 0.222115,-0.01058 0.327884,0.07404 0.327884,0.253846 0,0.126923 -0.105769,0.232692 -0.327884,0.327884 -0.581732,0.24327 -0.941346,0.528847 -1.1,0.846154 -0.148077,0.317308 -0.222115,0.941346 -0.222115,1.882693 v 5.3625 c 0,0.190385 0.04231,0.296154 0.116345,0.296154 l 0.222115,-0.158654 0.21154,-0.158654 5.901925,-5.299039 c 0.90961,-0.803846 1.36442,-1.449038 1.36442,-1.935577 0,-0.423077 -0.32788,-0.6875 -0.99423,-0.814423 -0.4125,-0.06346 -0.62404,-0.179808 -0.62404,-0.349038 0,-0.190385 0.1375,-0.275 0.42308,-0.275 0.0846,0 0.21154,0 0.37019,0.02115 0.39135,0.02115 0.825,0.04231 1.30096,0.04231 l 1.26923,0.03173 1.03654,-0.01058 c 0.58173,0 0.9625,-0.02115 1.14231,-0.04231 0.21154,-0.03173 0.35961,-0.04231 0.42308,-0.04231 0.25384,0 0.39134,0.08461 0.40192,0.264423 0.0106,0.148077 -0.21154,0.275 -0.65577,0.380769 -0.825,0.211539 -2.41154,1.364423 -4.74904,3.469231 l -4.717307,4.262501 c -0.200962,0.190385 -0.306729,0.338462 -0.306729,0.444231 -0.01058,0.1375 0.09519,0.327885 0.327882,0.581731 l 7.171154,7.499038 c 0.76154,0.793269 1.59712,1.290385 2.49616,1.470192 l 0.60288,0.126924 c 0.21153,0.04231 0.3173,0.1375 0.3173,0.275 0,0.222115 -0.14807,0.327884 -0.42307,0.30673 -0.0846,0 -0.20096,-0.01058 -0.33846,-0.03173 -0.16923,-0.02115 -0.56058,-0.04231 -1.17404,-0.04231 -0.55,0 -0.95192,0.01058 -1.19519,0.03173 -0.275,0.02115 -0.48654,0.02115 -0.63462,0.02115 -0.30673,0 -0.58173,-0.116347 -0.80384,-0.370193 l -0.2327,-0.253846 -7.393264,-7.615385 -0.285578,-0.30673 c -0.10577,-0.09519 -0.211537,-0.148077 -0.327885,-0.148077 -0.158652,0 -0.243268,0.105769 -0.243268,0.317307 v 5.034616 c 0,1.057692 0.137498,1.755769 0.423076,2.09423 0.285578,0.338462 0.941345,0.592308 1.956732,0.761539 0.264422,0.04231 0.401923,0.1375 0.412498,0.285577 0.01058,0.179808 -0.09519,0.275 -0.327885,0.264423 -0.12692,-0.01058 -0.380767,-0.03173 -0.740383,-0.06346 -0.306732,-0.02115 -0.856732,-0.03173 -1.639422,-0.03173 l -1.110578,-0.02115 -0.973077,0.03173 c -0.380769,0 -0.634616,0 -0.761539,0.01058 -0.486537,0.05288 -0.761537,0.07404 -0.825,0.07404 -0.296154,0 -0.454808,-0.105769 -0.454808,-0.327885 0,-0.1375 0.137501,-0.222115 0.401923,-0.253846 0.571156,-0.05288 0.962501,-0.327884 1.195194,-0.814423 0.222115,-0.486538 0.338461,-1.300961 0.338461,-2.453846 V 62.796062 c 0,-0.983654 -0.10577,-1.671154 -0.317307,-2.0625 -0.21154,-0.391346 -0.613463,-0.655769 -1.216348,-0.782692 l -0.676923,-0.1375 c -0.232691,-0.05288 -0.359614,-0.148077 -0.359614,-0.285577 0,-0.190385 0.126923,-0.275 0.38077,-0.275 z m -21.809618,-0.03173 c 0.05289,0 0.126924,0 0.222115,0.01058 l 0.571156,0.02115 0.920192,0.02115 0.222115,-0.01058 c 0.222115,-0.01058 0.391345,-0.01058 0.507693,-0.01058 0.232691,0 0.454809,0.126923 0.687499,0.391346 l 12.671155,14.352884 c 0.200962,0.222115 0.327885,0.338461 0.38077,0.327884 0.09519,-0.01058 0.137499,-0.09519 0.148077,-0.264423 v -6.811538 l 0.02115,-1.861538 -0.16923,-3.162501 c -0.09519,-0.782692 -0.317307,-1.332692 -0.67692,-1.660577 -0.370195,-0.327884 -1.025962,-0.571154 -1.96731,-0.719231 -0.264422,-0.05288 -0.401923,-0.158653 -0.401923,-0.338461 0,-0.169231 0.137501,-0.253846 0.401923,-0.253846 0.116348,0 0.31731,0.01058 0.581732,0.03173 0.634616,0.06346 1.480769,0.105769 2.549038,0.105769 0.560578,0 1.015383,-0.03173 1.353846,-0.08461 0.296154,-0.05289 0.518269,-0.08461 0.676924,-0.08461 0.243268,0 0.370191,0.09519 0.391345,0.285577 0.01058,0.126923 -0.08461,0.211538 -0.275,0.264423 -0.560576,0.1375 -0.93077,0.370192 -1.110575,0.6875 -0.179809,0.317308 -0.275,0.920192 -0.275,1.808654 v 1.480769 l -0.02116,0.909616 v 11.539423 c 0,1.036538 -0.02115,1.671154 -0.07404,1.893269 -0.04231,0.222116 -0.16923,0.327885 -0.380767,0.327885 -0.137501,-0.01058 -0.243271,-0.05288 -0.31731,-0.126923 L 86.233289,77.931639 74.630402,64.657601 74.492903,64.509524 c -0.05289,-0.05288 -0.116345,-0.08462 -0.190386,-0.08462 -0.179805,0 -0.264422,0.211538 -0.264422,0.624038 v 9.339423 l -0.01058,0.581731 0.04231,0.973077 c 0.06346,0.613461 0.211537,1.025961 0.465383,1.258653 0.243269,0.232693 0.729808,0.401924 1.459616,0.507693 0.296154,0.04231 0.454809,0.158654 0.454809,0.349038 0,0.179808 -0.0952,0.275 -0.296154,0.275 -0.126923,0 -0.264424,-0.01058 -0.412501,-0.03173 -0.09519,-0.02115 -0.497115,-0.04231 -1.195192,-0.08462 l -1.406731,-0.06346 -0.65577,0.02115 c -0.359614,0 -0.698077,0.02115 -1.015383,0.06346 -0.243269,0.03173 -0.412502,0.05288 -0.518269,0.05288 -0.232693,0 -0.359616,-0.08462 -0.38077,-0.253847 -0.01058,-0.1375 0.116345,-0.253846 0.38077,-0.338461 0.772115,-0.264423 1.300962,-0.624039 1.565384,-1.068269 0.274999,-0.444231 0.412498,-1.163462 0.412498,-2.157693 v -9.371153 c 0,-1.586539 -0.253844,-2.834616 -0.761537,-3.754808 -0.507693,-0.909616 -1.237501,-1.438462 -2.189424,-1.565385 -0.243269,-0.03173 -0.370192,-0.1375 -0.370192,-0.306731 0,-0.169231 0.09519,-0.253846 0.296153,-0.253846 z m 46.475003,-0.01058 c 2.11538,0 3.71249,0.391346 4.78077,1.184615 1.07884,0.803846 1.60769,1.977884 1.60769,3.553846 0,2.0625 -1.13173,3.670192 -3.3952,4.791346 l 3.79712,5.605769 0.44423,0.65577 c 1.17404,1.724038 2.25288,2.623076 3.24712,2.686538 l 0.44423,0.02115 c 0.15865,0.01058 0.24327,0.07404 0.23269,0.200961 -0.0106,0.1375 -0.21154,0.264424 -0.61346,0.38077 -0.40193,0.105769 -0.85673,0.16923 -1.35385,0.16923 -0.825,0 -1.56538,-0.232692 -2.23173,-0.6875 -0.65577,-0.454807 -1.32212,-1.195192 -1.99904,-2.221153 l -3.42692,-5.235577 -0.19039,-0.296154 c -0.22211,-0.380765 -0.58173,-0.57115 -1.07884,-0.57115 h -1.82981 l -0.30673,0.05288 c -0.10577,0.06346 -0.15865,0.211538 -0.15865,0.44423 v 4.31539 l 0.0106,0.55 c 0,0.793269 0.0423,1.332692 0.11635,1.618269 0.0846,0.296154 0.26442,0.55 0.56058,0.782692 0.39134,0.317308 1.0048,0.507693 1.8298,0.592308 0.32789,0.04231 0.49712,0.1375 0.5077,0.317308 0.0212,0.179808 -0.12693,0.264423 -0.45481,0.264423 -0.12693,0 -0.40193,-0.02115 -0.81442,-0.06346 -0.3702,-0.04231 -0.95193,-0.06346 -1.7452,-0.06346 l -1.32214,-0.01058 -0.71923,0.01058 c -0.30673,0 -0.6875,0.02115 -1.12116,0.07404 -0.35961,0.03173 -0.61346,0.05288 -0.75096,0.05288 -0.22211,0 -0.33846,-0.09519 -0.33846,-0.285577 0,-0.126923 0.11635,-0.222115 0.33846,-0.264423 0.74039,-0.1375 1.21635,-0.475962 1.44904,-1.004808 0.23269,-0.528846 0.34904,-1.565384 0.34904,-3.120192 v -9.9 l -0.0317,-1.438462 c 0,-1.427884 -0.49712,-2.231731 -1.50193,-2.390385 l -0.64519,-0.105769 c -0.29615,-0.05289 -0.44423,-0.158654 -0.44423,-0.317308 0,-0.190384 0.15866,-0.285576 0.47596,-0.285576 0.0635,0 0.39135,0.02115 0.9625,0.05289 0.32789,0.03173 0.74039,0.04231 1.22693,0.04231 0.4125,0 1.1423,-0.03173 2.15769,-0.09519 0.72981,-0.04231 1.38558,-0.06346 1.93558,-0.06346 z m -53.106734,-0.06346 c 0.200962,0.01058 0.497118,0.05288 0.877885,0.116346 0.349039,0.05288 0.76154,0.08461 1.248077,0.08461 1.025961,0 1.660578,-0.02115 1.893271,-0.04231 0.317307,-0.03173 0.528846,-0.04231 0.602885,-0.04231 0.179808,0 0.264422,0.07404 0.264422,0.243269 0,0.126923 -0.09519,0.243269 -0.285576,0.317308 -0.560578,0.232693 -0.930769,0.550001 -1.089424,0.962501 -0.16923,0.4125 -0.253847,1.195192 -0.253847,2.348076 v 6.811539 c 0,2.506731 -0.497115,4.431731 -1.501923,5.785577 -0.624038,0.846154 -1.533652,1.533654 -2.718268,2.041346 -1.174038,0.507693 -2.432693,0.761539 -3.775962,0.761539 -1.554808,0 -2.961539,-0.296154 -4.209616,-0.909616 -1.248076,-0.602884 -2.168268,-1.427884 -2.739421,-2.464423 -0.65577,-1.184615 -0.983655,-2.749999 -0.983655,-4.664423 v -6.991346 l -0.02115,-0.782692 c 0,-0.983654 -0.137501,-1.660577 -0.412501,-2.03077 -0.264422,-0.380769 -0.814422,-0.624038 -1.628846,-0.740384 -0.243269,-0.03173 -0.370192,-0.126923 -0.370192,-0.285577 0,-0.211539 0.16923,-0.317308 0.518268,-0.317308 0.232694,0 0.55,0.01058 0.951924,0.02115 0.423076,0.03173 0.729808,0.04231 0.920194,0.04231 l 1.068268,-0.01058 h 1.047115 c 0.10577,0 0.359617,-0.02115 0.76154,-0.05288 0.349038,-0.03173 0.581729,-0.04231 0.708652,-0.04231 0.21154,0 0.31731,0.07404 0.31731,0.211539 0,0.16923 -0.148077,0.285576 -0.444233,0.338461 -0.528844,0.116346 -0.88846,0.349038 -1.068269,0.698077 -0.179808,0.338462 -0.264421,0.951923 -0.264421,1.840385 l 0.02115,0.909615 v 6.938462 c 0,2.369231 0.370192,4.050962 1.110575,5.066346 1.03654,1.427885 2.771156,2.136539 5.225003,2.136539 2.178843,0 3.818268,-0.592308 4.897114,-1.7875 1.089422,-1.195193 1.628847,-3.003846 1.628847,-5.415385 V 63.11337 c 0,-1.142308 -0.158655,-1.977885 -0.497115,-2.496154 -0.327882,-0.518269 -0.88846,-0.814423 -1.671153,-0.888462 -0.275,-0.02115 -0.401924,-0.126923 -0.401924,-0.296154 0,-0.200961 0.08462,-0.285576 0.275,-0.285576 z m 68.274034,15.008654 c 0.17981,0 0.39135,0.211538 0.63462,0.634615 0.16923,0.285577 0.46538,0.571154 0.88846,0.867308 0.44423,0.327885 0.66635,0.581731 0.66635,0.793269 0,0.169231 -0.21154,0.391346 -0.63462,0.666346 -0.42308,0.264423 -0.71923,0.560577 -0.90961,0.877885 l -0.2327,0.370192 c -0.11634,0.200962 -0.28557,0.296154 -0.49711,0.296154 -0.19039,0 -0.42308,-0.211538 -0.71923,-0.634615 -0.26443,-0.401924 -0.57116,-0.698077 -0.90962,-0.909616 -0.40192,-0.253846 -0.60288,-0.486538 -0.60288,-0.698077 0,-0.200961 0.19038,-0.401923 0.56057,-0.624038 0.38077,-0.211539 0.71923,-0.560577 1.03654,-1.025962 0.26443,-0.4125 0.49712,-0.613461 0.71923,-0.613461 z m 26.74904,-9.730769 c -1.43846,0 -2.59134,0.528846 -3.46923,1.586538 -0.87788,1.068269 -1.31154,2.453846 -1.31154,4.177884 0,2.189424 0.53943,4.029808 1.63943,5.500001 1.08942,1.480769 2.45384,2.210576 4.08269,2.210576 1.41731,0 2.53846,-0.518269 3.36346,-1.565384 0.81442,-1.036539 1.22692,-2.464423 1.22692,-4.251923 0,-2.263462 -0.51827,-4.103846 -1.54423,-5.521154 -1.03654,-1.427885 -2.36923,-2.136538 -3.9875,-2.136538 z m 0.43366,-0.687501 c 2.06249,0 3.83942,0.719231 5.32019,2.16827 1.48077,1.449038 2.22115,3.183654 2.22115,5.193269 0,2.178846 -0.72981,3.976923 -2.18942,5.394231 -1.45962,1.427884 -3.3,2.136538 -5.52115,2.136538 -2.17885,0 -3.97693,-0.698077 -5.38366,-2.073077 -1.40673,-1.385577 -2.10481,-3.151923 -2.10481,-5.309615 0,-2.083654 0.74039,-3.860577 2.23173,-5.320192 1.49135,-1.459616 3.3,-2.189424 5.42597,-2.189424 z m -14.22596,0 c 0.99423,0 1.87211,0.116346 2.64422,0.370193 0.77212,0.243269 1.16347,0.528846 1.16347,0.846154 l -0.0212,0.518269 0.12693,1.311538 c 0,0.602885 -0.1375,0.920193 -0.42308,0.941347 -0.12692,0.01058 -0.29616,-0.158654 -0.48654,-0.507693 -0.37019,-0.655769 -0.98365,-1.226923 -1.85096,-1.713461 -0.86731,-0.475962 -1.70288,-0.719231 -2.51731,-0.719231 -1.12115,0 -2.04134,0.507692 -2.75,1.533654 -0.70865,1.025961 -1.06827,2.348077 -1.06827,3.966346 0,1.914423 0.55,3.532692 1.65,4.854808 1.08942,1.332692 2.42212,1.988461 4.00866,1.988461 1.26923,0 2.5173,-0.518269 3.74423,-1.565384 0.15865,-0.126923 0.29615,-0.190385 0.42307,-0.211539 0.17981,-0.02115 0.26443,0.06346 0.26443,0.243269 0,0.253847 -0.275,0.624039 -0.825,1.110577 -1.41731,1.279808 -3.13077,1.925 -5.12981,1.925 -1.84039,0 -3.37404,-0.666346 -4.60096,-2.009615 -1.2375,-1.332692 -1.85097,-2.982693 -1.85097,-4.960577 0,-2.2 0.72981,-4.072116 2.18943,-5.616346 1.45961,-1.533654 3.23654,-2.30577 5.30962,-2.30577 z m 28.81153,-0.401923 c 0.16923,0 0.26442,0.211538 0.26442,0.634615 v 2.083655 c 1.27981,-1.544231 2.79231,-2.316347 4.53751,-2.316347 1.01538,0 1.84038,0.190385 2.48557,0.581731 0.63462,0.391346 1.2375,1.057693 1.79808,1.999039 1.32211,-1.724039 2.89808,-2.58077 4.72788,-2.58077 1.55481,0 2.76058,0.497116 3.63846,1.48077 0.86731,0.994231 1.30097,2.379807 1.30097,4.167308 v 5.542307 c 0,0.877885 0.16923,1.533654 0.51827,1.956731 0.33846,0.433654 0.90961,0.676923 1.70288,0.761538 0.275,0.02115 0.4125,0.148077 0.4125,0.370193 0,0.200961 -0.1375,0.296154 -0.4125,0.296154 -0.12692,0 -0.30673,-0.01058 -0.52884,-0.04231 -0.3702,-0.06346 -0.94135,-0.09519 -1.72404,-0.09519 -1.52308,0 -2.46443,0.03173 -2.8452,0.08461 -0.25384,0.04231 -0.42307,0.05288 -0.51827,0.05288 -0.29615,0 -0.4548,-0.10577 -0.46538,-0.327885 -0.0106,-0.1375 0.0846,-0.243269 0.29615,-0.317308 0.5077,-0.200961 0.83558,-0.391346 0.99423,-0.571154 0.14808,-0.179807 0.2327,-0.486538 0.2327,-0.899038 l 0.0106,-0.581731 V 69.98836 c 0,-1.554808 -0.32788,-2.760577 -0.98365,-3.617308 -0.65577,-0.867307 -1.57596,-1.290384 -2.76058,-1.290384 -0.77211,0 -1.52307,0.243269 -2.23173,0.719231 -0.70865,0.486538 -1.06827,0.99423 -1.06827,1.533653 0,0.116346 0.0212,0.253846 0.0529,0.433654 0.074,0.4125 0.10577,0.803846 0.10577,1.184616 v 6.229807 c 0,0.867308 0.14807,1.48077 0.44423,1.829808 0.28557,0.338461 0.84615,0.55 1.66057,0.613461 0.3702,0.04231 0.56058,0.169231 0.56058,0.38077 0,0.211538 -0.15865,0.306731 -0.49711,0.306731 -0.11635,0 -0.29616,-0.01058 -0.55,-0.03173 -0.63462,-0.06346 -1.17404,-0.105769 -1.62885,-0.105769 -1.57596,0 -2.57019,0.03173 -2.98269,0.09519 -0.22212,0.03173 -0.39135,0.04231 -0.53942,0.04231 -0.275,0 -0.41251,-0.09519 -0.41251,-0.296154 0,-0.126923 0.10577,-0.232693 0.31731,-0.296154 0.60289,-0.222116 0.9625,-0.433654 1.07885,-0.645193 0.11635,-0.211538 0.16923,-0.772115 0.16923,-1.68173 v -6.377885 c 0,-1.205769 -0.30673,-2.157692 -0.93077,-2.845192 -0.62404,-0.698077 -1.49134,-1.047115 -2.58077,-1.047115 -1.01538,0 -1.82981,0.264423 -2.45385,0.782692 -0.62403,0.518269 -0.93077,1.205769 -0.93077,2.041346 v 7.393269 c 0,0.750962 0.15866,1.290385 0.48654,1.639423 0.32789,0.338462 0.87789,0.560577 1.66058,0.645192 0.35962,0.04231 0.53942,0.169231 0.53942,0.391347 0,0.211538 -0.1375,0.317307 -0.42307,0.296154 -0.15866,-0.01058 -0.43366,-0.03173 -0.825,-0.08462 -0.24327,-0.03173 -0.71923,-0.05288 -1.42789,-0.05288 h -1.16346 l -1.17404,0.02115 c -0.15865,0 -0.35961,0.02115 -0.60288,0.04231 -0.29616,0.04231 -0.50769,0.06346 -0.63462,0.07404 -0.28558,0.02115 -0.43365,-0.08462 -0.43365,-0.296154 0,-0.179808 0.12692,-0.306731 0.38077,-0.391347 0.52884,-0.158653 0.8673,-0.359615 1.01538,-0.613461 0.14808,-0.253846 0.22212,-0.750961 0.22212,-1.480769 v -7.7 c 0,-0.825 -0.0846,-1.396154 -0.26443,-1.702885 -0.1798,-0.30673 -0.50769,-0.465384 -0.99423,-0.465384 h -0.76154 c -0.10577,0 -0.21153,-0.03173 -0.28557,-0.08462 -0.074,-0.04231 -0.10577,-0.09519 -0.10577,-0.179807 0,-0.158654 0.1375,-0.275 0.4125,-0.359616 1.18461,-0.306731 2.28461,-0.750961 3.3,-1.322116 0.45481,-0.253846 0.71923,-0.380769 0.81442,-0.380769 z"
       style="fill:none;stroke:#000000;stroke-width:0.26442307px;stroke-linecap:butt;stroke-linejoin:round;stroke-miterlimit:4;stroke-dasharray:none;stroke-opacity:1"
       inkscape:connector-curvature="0" />
  </g>
</svg>
